<?xml version="1.0" encoding="UTF-8"?>
<svg width="124px" height="106px" viewBox="0 0 124 106" version="1.1" xmlns="http://www.w3.org/2000/svg" xmlns:xlink="http://www.w3.org/1999/xlink">
    <!-- Generator: Sketch 64 (93537) - https://sketch.com -->
    <title>Hand L</title>
    <desc>Created with Sketch.</desc>
    <g id="Page-1" stroke="none" stroke-width="1" fill="none" fill-rule="evenodd">
        <g id="Hands" transform="translate(-933.000000, -147.000000)" fill="#FFFFFF" stroke="#000000" stroke-width="12">
            <path d="M1030.90179,230.376803 C1032.21871,230.006861 1033.44086,229.582465 1034.51815,229.087761 C1036.73735,228.068688 1038.47598,226.74933 1039.69269,225.230021 C1041.16898,223.38657 1042,221.221235 1042,218.658209 C1042,216.08508 1041.17235,213.920588 1039.71693,212.082705 C1038.49761,210.542968 1036.75593,209.214304 1034.5363,208.194374 C1032.9305,207.456504 1031.00491,206.881282 1028.92902,206.414319 C1029.96272,205.97485 1030.9308,205.481521 1031.8025,204.92267 C1035.74103,202.397635 1038.16927,198.797916 1038.16927,193.686626 C1038.16927,190.513188 1036.55297,187.035823 1031.75667,184.21504 C1028.9337,182.554805 1024.82641,181.056668 1019.99363,179.84973 C1009.7858,177.300425 996.124254,175.890468 986.157454,175.722631 C985.32326,173.481624 984.835692,170.30089 984.258366,166.995606 C983.241104,161.17162 982.028599,155.052981 979.870387,151.047033 C978.617311,148.721147 977.045162,146.958687 975.250499,145.79 C973.223336,144.469908 970.875781,143.798862 968.10774,144.049456 C964.092349,144.412975 960.372524,146.590626 957.319004,150.870021 C955.010508,154.105291 953.047814,158.694828 951.577906,164.292125 C948.70484,175.232546 947.569308,190.311781 948.148143,205.48739 C948.709598,220.207328 950.28562,233.92153 957.063802,243.149965 C962.688921,250.808514 971.669409,256 987.005768,256 C997.577753,256 1012.54559,255.468939 1023.04053,253.242738 C1027.55221,252.285712 1031.31639,250.970825 1033.8967,249.400497 C1038.12538,246.82701 1039.78409,243.515355 1039.78409,240.077316 C1039.78409,237.695742 1038.93928,235.664929 1037.33074,233.953874 C1036.22671,232.779494 1034.65313,231.728262 1032.61999,230.943818 C1032.08797,230.73855 1031.51259,230.550324 1030.90179,230.376803 Z" id="Hand-L" transform="translate(995.000000, 200.000000) scale(-1, 1) rotate(-90.000000) translate(-995.000000, -200.000000) "></path>
        </g>
    </g>
</svg>